<?xml version="1.0" encoding="UTF-8" standalone="no"?>
<svg
   xmlns:dc="http://purl.org/dc/elements/1.1/"
   xmlns:cc="http://creativecommons.org/ns#"
   xmlns:rdf="http://www.w3.org/1999/02/22-rdf-syntax-ns#"
   xmlns:svg="http://www.w3.org/2000/svg"
   xmlns="http://www.w3.org/2000/svg"
   xmlns:sodipodi="http://sodipodi.sourceforge.net/DTD/sodipodi-0.dtd"
   xmlns:inkscape="http://www.inkscape.org/namespaces/inkscape"
   inkscape:version="1.0 (4035a4fb49, 2020-05-01)"
   sodipodi:docname="microos-square-hicolor.svg"
   id="svg837"
   version="1.1"
   viewBox="0 0 112 69.937744"
   preserveAspectRatio="xMidYMid meet"
   height="69.937744"
   width="112">
  <metadata
     id="metadata843">
    <rdf:RDF>
      <cc:Work
         rdf:about="">
        <dc:format>image/svg+xml</dc:format>
        <dc:type
           rdf:resource="http://purl.org/dc/dcmitype/StillImage" />
        <dc:title></dc:title>
      </cc:Work>
    </rdf:RDF>
  </metadata>
  <defs
     id="defs841" />
  <sodipodi:namedview
     fit-margin-bottom="0"
     fit-margin-right="0"
     fit-margin-top="0"
     fit-margin-left="0"
     inkscape:current-layer="svg837"
     inkscape:window-maximized="1"
     inkscape:window-y="0"
     inkscape:window-x="0"
     inkscape:cy="31.319913"
     inkscape:cx="56"
     inkscape:zoom="7.85"
     showgrid="false"
     id="namedview839"
     inkscape:window-height="1135"
     inkscape:window-width="1920"
     inkscape:pageshadow="2"
     inkscape:pageopacity="0"
     guidetolerance="10"
     gridtolerance="10"
     objecttolerance="10"
     borderopacity="1"
     bordercolor="#666666"
     pagecolor="#ffffff" />
  <path
     style="fill:#73ba25;fill-opacity:1"
     id="path835"
     d="M 56.000002,0 C 37.910084,0 22.972623,13.836204 21.208696,31.471986 H 3.5466792 a 3.4972378,3.497237 0 1 0 0,6.993775 H 21.208696 c 1.763927,17.635786 16.701388,31.471986 34.791306,31.471986 18.089916,0 33.027377,-13.8362 34.791306,-31.471986 h 17.662012 a 3.4972378,3.497237 0 1 0 0,-6.993775 H 90.791308 C 89.027379,13.836204 74.089918,0 56.000002,0 Z m 0,6.993775 c 15.374925,0 27.76163,12.304218 27.947784,27.633593 a 3.4972378,3.497237 0 0 0 0,0.669304 c -0.178838,15.335875 -12.568222,27.647305 -27.947784,27.647305 -15.374926,0 -27.761631,-12.30422 -27.947786,-27.633597 a 3.4972378,3.497237 0 0 0 0,-0.669305 c 0.178841,-15.335879 12.568228,-27.6473 27.947786,-27.6473 z m 0,13.987549 c -7.683693,0 -13.987553,6.303839 -13.987553,13.98755 0,7.68371 6.30386,13.987553 13.987553,13.987553 7.683692,0 13.987556,-6.303843 13.987549,-13.987553 0,-7.683711 -6.303857,-13.98755 -13.987549,-13.98755 z m 0,6.993775 c 3.903975,0 6.993776,3.08978 6.993776,6.993775 0,3.903995 -3.089801,6.993774 -6.993776,6.993774 -3.903976,0 -6.993777,-3.089779 -6.993777,-6.993774 0,-3.903995 3.089801,-6.993775 6.993777,-6.993775 z"
     fill="#173f4f" />
</svg>
