<?xml version="1.0" encoding="UTF-8" standalone="no"?>
<svg
   xmlns:dc="http://purl.org/dc/elements/1.1/"
   xmlns:cc="http://creativecommons.org/ns#"
   xmlns:rdf="http://www.w3.org/1999/02/22-rdf-syntax-ns#"
   xmlns:svg="http://www.w3.org/2000/svg"
   xmlns="http://www.w3.org/2000/svg"
   id="svg8"
   version="1.1"
   viewBox="0 0 210 210"
   height="210mm"
   width="210mm">
  <defs
     id="defs2" />
  <metadata
     id="metadata5">
    <rdf:RDF>
      <cc:Work
         rdf:about="">
        <dc:format>image/svg+xml</dc:format>
        <dc:type
           rdf:resource="http://purl.org/dc/dcmitype/StillImage" />
        <dc:title></dc:title>
      </cc:Work>
    </rdf:RDF>
  </metadata>
  <g
     transform="translate(0,-87)"
     id="layer1">
    <path
       id="path200436"
       d="m 17.374764,185.27163 c -2.83353,2.83353 -2.83575,7.49724 -10e-4,10.33153 l 7.11667,7.11668 -5.81838,5.81838 c -1.68013,1.68013 -2.60972,3.84663 -2.81729,6.04092 -0.0328,0.26092 -0.065,0.55382 -0.065,0.89379 -3e-5,2.50357 0.96172,5.03309 2.87247,6.94384 l 56.18471,56.1847 c 1.90495,1.90496 4.42581,2.85659 6.913864,2.88051 a 2.2754534,2.2754534 0 0 0 0.02192,0 c 2.502465,0 5.031637,-0.96026 6.942381,-2.871 l 5.837753,-5.83776 6.560158,6.56017 c 2.83429,2.83428 7.49907,2.83392 10.33336,-3.7e-4 2.83429,-2.83428 2.83428,-7.49871 0,-10.33299 l -6.56016,-6.56016 5.79208,-5.79208 6.56016,6.56016 c 2.83353,2.83353 7.49762,2.83538 10.33189,0.001 2.8343,-2.83429 2.83651,-7.49942 0.002,-10.33446 l -6.56016,-6.56016 5.79207,-5.79207 6.56017,6.56016 c 2.83428,2.83428 7.4987,2.83429 10.33299,0 2.83429,-2.83429 2.83243,-7.49837 -0.001,-10.3319 l -6.56016,-6.56016 5.795,-5.795 6.56016,6.56016 c 2.83352,2.83353 7.49724,2.83575 10.33153,0.001 2.83429,-2.83429 2.83207,-7.49801 -0.002,-10.33153 l -6.56016,-6.56016 5.79499,-5.795 6.56017,6.56016 c 2.83352,2.83353 7.49761,2.83539 10.3319,0.001 2.83428,-2.83429 2.83206,-7.49801 -0.001,-10.33154 l -6.56017,-6.56016 5.795,-5.795 6.56016,6.56017 c 2.83353,2.83352 7.49761,2.83538 10.3319,10e-4 2.83429,-2.83429 2.83428,-7.49871 0,-10.33299 l -6.56016,-6.56016 6.35553,-6.35554 c 1.91075,-1.91074 2.87284,-4.44065 2.87283,-6.94421 a 2.2754534,2.2754534 0 0 0 -0.19877,-0.92228 c -0.21427,-2.18908 -1.02024,-4.34837 -2.68356,-6.01169 l -56.18576,-56.18396 c -1.91074,-1.91075 -4.44028,-2.87248 -6.94384,-2.87247 -2.50355,0 -5.03309,0.96173 -6.94384,2.87247 l -6.35589,6.35591 -7.10718,-7.10719 c -2.83345,-2.83408 -7.49654,-2.83353 -10.330073,0 -2.833532,2.83354 -2.833907,7.49691 -3.68e-4,10.33045 l 7.107181,7.10718 -5.794635,5.79463 -7.107179,-7.10718 c -2.83354,-2.83354 -7.496901,-2.83316 -10.330434,3.7e-4 -2.833538,2.83353 -2.835758,7.49724 -0.0015,10.33153 l 7.10718,7.10718 -5.793536,5.79354 -7.107182,-7.10718 c -2.83429,-2.83429 -7.498,-2.83207 -10.33153,0.001 -2.83354,2.83353 -2.83391,7.4969 -3.7e-4,10.33044 l 7.10718,7.10718 -5.795,5.79499 -7.10718,-7.10717 c -2.83354,-2.83354 -7.496541,-2.83353 -10.330071,0 -2.83353,2.83353 -2.83391,7.49689 -3.7e-4,10.33043 l 7.107181,7.10718 -5.795001,5.795 -7.10718,-7.10718 c -2.83354,-2.83354 -7.49652,-2.83354 -10.330059,0 -2.83353,2.83353 -2.83354,7.49654 -1e-5,10.33007 l 7.107179,7.10718 -5.793899,5.7939 -7.10718,-7.10718 c -2.83429,-2.83429 -7.498,-2.83206 -10.33153,0.001 z m 15.00655,30.20093 96.368206,-96.3682 49.40091,49.40091 -96.368204,96.36821 z"
       style="fill:#73ba25;fill-opacity:1;stroke-width:1.30988026" />
  </g>
</svg>
