<?xml version="1.0" encoding="UTF-8" standalone="no"?>
<svg
   xmlns:dc="http://purl.org/dc/elements/1.1/"
   xmlns:cc="http://creativecommons.org/ns#"
   xmlns:rdf="http://www.w3.org/1999/02/22-rdf-syntax-ns#"
   xmlns:svg="http://www.w3.org/2000/svg"
   xmlns="http://www.w3.org/2000/svg"
   id="svg8"
   version="1.1"
   viewBox="0 0 210 210"
   height="210mm"
   width="210mm">
  <defs
     id="defs2" />
  <metadata
     id="metadata5">
    <rdf:RDF>
      <cc:Work
         rdf:about="">
        <dc:format>image/svg+xml</dc:format>
        <dc:type
           rdf:resource="http://purl.org/dc/dcmitype/StillImage" />
        <dc:title></dc:title>
      </cc:Work>
    </rdf:RDF>
  </metadata>
  <g
     transform="translate(0,-87)"
     id="layer1">
    <g
       transform="matrix(20.07874,0,0,20.07874,20.000001,107)"
       style="fill:#73ba25;fill-opacity:1;stroke:none"
       id="use99366">
      <title
         id="title200478">drive-harddisk-usb-symbolic</title>
      <path
         style="fill:#73ba25;fill-opacity:1;stroke-width:0.26458332"
         d="M 1.6867187,0 C 1.050925,0 0.52916667,0.52255208 0.52916667,1.1575521 v 6.1515625 c 0,0.635 0.52175833,1.1575521 1.15755203,1.1575521 H 6.7799479 C 7.4157417,8.4666667 7.9375,7.9441146 7.9375,7.3091146 V 1.1575521 C 7.9375,0.52255208 7.4157417,0 6.7799479,0 Z m 0,1.0583333 h 5.0932292 c 0.065617,0 0.099219,0.029898 0.099219,0.099219 v 6.1515625 c 0,0.069321 -0.033602,0.099219 -0.099219,0.099219 H 1.6867187 c -0.065617,0 -0.099219,-0.029898 -0.099219,-0.099219 V 1.1575521 c 0,-0.069321 0.033602,-0.099219 0.099219,-0.099219 z"
         id="path200480" />
      <path
         style="fill:#73ba25;fill-opacity:1;stroke-width:0.26458332"
         d="M 4.1507833,1.5875 C 4.0102896,1.5933208 3.8626521,1.6184562 3.7208354,1.6536458 2.5860375,1.9346333 1.9020896,3.0821312 2.1828125,4.2169292 2.4209375,5.178425 3.2810979,5.8163354 4.2283062,5.8179229 4.3172062,5.8181875 4.4069,5.8126312 4.4968583,5.8012542 L 4.2910125,4.2246021 c -0.018256,0.00529 -0.037306,0.009 -0.057944,0.009 -0.2923645,0 -0.5291666,-0.2368021 -0.5291666,-0.5291667 0,-0.2923645 0.2368021,-0.5291666 0.5291666,-0.5291666 0.2923646,0 0.5291667,0.2368021 0.5291667,0.5291666 0,0.062177 -0.015081,0.1190625 -0.038365,0.1719792 l 1.4290152,0.73395 C 6.3571437,4.1711562 6.4015937,3.6681833 6.2835896,3.1919333 6.0377917,2.1989521 5.133975,1.5478125 4.1502542,1.5877646 Z"
         id="path200482" />
      <path
         style="fill:#73ba25;fill-opacity:1;stroke-width:0.26458332"
         d="M 4.5831125,4.2333333 5.2916667,6.35 c 0.3886729,1.0879667 1.5875,0.2034646 0.7918979,-0.5291667 z"
         id="path200484" />
    </g>
  </g>
</svg>
