<?xml version="1.0" encoding="UTF-8" standalone="no"?>
<!-- Created with Inkscape (http://www.inkscape.org/) -->

<svg
   xmlns:dc="http://purl.org/dc/elements/1.1/"
   xmlns:cc="http://creativecommons.org/ns#"
   xmlns:rdf="http://www.w3.org/1999/02/22-rdf-syntax-ns#"
   xmlns:svg="http://www.w3.org/2000/svg"
   xmlns="http://www.w3.org/2000/svg"
   xmlns:xlink="http://www.w3.org/1999/xlink"
   xmlns:sodipodi="http://sodipodi.sourceforge.net/DTD/sodipodi-0.dtd"
   xmlns:inkscape="http://www.inkscape.org/namespaces/inkscape"
   width="210mm"
   height="210mm"
   viewBox="0 0 210 210"
   version="1.1"
   id="svg8"
   inkscape:version="0.92.2 5c3e80d, 2017-08-06"
   sodipodi:docname="idea.svg">
  <defs
     id="defs2">
    <symbol
       id="lightbulb">
      <title
         id="lightbulb-title">Lightbulb</title>
      <path
         style="stroke-width:0.26458332"
         inkscape:connector-curvature="0"
         d="M 71.966667,113.24167 V 120.65 c 0,2.76463 -1.767417,5.11545 -4.233334,5.98726 v 2.47941 c 0,3.50705 -2.842948,6.35 -6.35,6.35 H 40.216667 c -3.507052,0 -6.35,-2.84295 -6.35,-6.35 v -2.47941 C 31.40075,125.76545 29.633333,123.41463 29.633333,120.65 v -7.40833 c 0,-1.7534 1.421607,-3.175 3.175,-3.175 h 35.983334 c 1.753393,0 3.175,1.4216 3.175,3.175 z m -38.1,-66.675003 c 0,-9.337146 7.596187,-16.933334 16.933333,-16.933334 2.338123,0 4.233333,-1.895475 4.233333,-4.233333 0,-2.337858 -1.89521,-4.233333 -4.233333,-4.233333 -14.005719,0 -25.4,11.394281 -25.4,25.4 0,2.337858 1.895475,4.233333 4.233333,4.233333 2.337859,0 4.233334,-1.895475 4.233334,-4.233333 z M 50.8,12.7 c 18.715037,0 33.866667,15.148454 33.866667,33.866667 0,20.532195 -9.890919,16.001206 -21.425959,42.333333 H 38.359292 C 26.807054,62.528979 16.933333,67.169506 16.933333,46.566667 16.933333,27.851365 32.081787,12.7 50.8,12.7 M 50.8,0 C 25.083823,0 4.2333333,20.84996 4.2333333,46.566667 c 0,26.916327 13.6781647,24.220223 23.9490247,50.978329 C 29.121629,99.992127 31.481712,101.6 34.102675,101.6 H 67.49706 c 2.620963,0 4.981046,-1.608138 5.920317,-4.055004 C 83.688502,70.78689 97.366667,73.482994 97.366667,46.566667 97.366667,20.84996 76.516177,0 50.8,0 Z"
         id="path69581" />
    </symbol>
  </defs>
  <sodipodi:namedview
     id="base"
     pagecolor="#ffffff"
     bordercolor="#666666"
     borderopacity="1.0"
     inkscape:pageopacity="0.0"
     inkscape:pageshadow="2"
     inkscape:zoom="0.49497475"
     inkscape:cx="11.680086"
     inkscape:cy="328.50175"
     inkscape:document-units="mm"
     inkscape:current-layer="layer1"
     showgrid="false"
     inkscape:window-width="1552"
     inkscape:window-height="910"
     inkscape:window-x="31"
     inkscape:window-y="30"
     inkscape:window-maximized="0" />
  <metadata
     id="metadata5">
    <rdf:RDF>
      <cc:Work
         rdf:about="">
        <dc:format>image/svg+xml</dc:format>
        <dc:type
           rdf:resource="http://purl.org/dc/dcmitype/StillImage" />
        <dc:title />
      </cc:Work>
    </rdf:RDF>
  </metadata>
  <g
     inkscape:label="Ebene 1"
     inkscape:groupmode="layer"
     id="layer1"
     transform="translate(0,-87)">
    <use
       id="use101610"
       style="fill:#73ba25;fill-opacity:1;stroke:none"
       xlink:href="#lightbulb"
       x="0"
       y="0"
       width="100%"
       height="100%"
       transform="matrix(1.3287401,0,0,1.3287401,37.500003,108.87921)" />
  </g>
</svg>
