<?xml version="1.0" encoding="UTF-8" standalone="no"?>
<!-- Created with Inkscape (http://www.inkscape.org/) -->

<svg
   xmlns:dc="http://purl.org/dc/elements/1.1/"
   xmlns:cc="http://creativecommons.org/ns#"
   xmlns:rdf="http://www.w3.org/1999/02/22-rdf-syntax-ns#"
   xmlns:svg="http://www.w3.org/2000/svg"
   xmlns="http://www.w3.org/2000/svg"
   xmlns:sodipodi="http://sodipodi.sourceforge.net/DTD/sodipodi-0.dtd"
   xmlns:inkscape="http://www.inkscape.org/namespaces/inkscape"
   width="210mm"
   height="210mm"
   viewBox="0 0 210 210"
   version="1.1"
   id="svg573096"
   inkscape:version="0.92.2 5c3e80d, 2017-08-06"
   sodipodi:docname="zeichnung.svg">
  <defs
     id="defs573090" />
  <sodipodi:namedview
     id="base"
     pagecolor="#ffffff"
     bordercolor="#666666"
     borderopacity="1.0"
     inkscape:pageopacity="0.0"
     inkscape:pageshadow="2"
     inkscape:zoom="0.35"
     inkscape:cx="-361.42857"
     inkscape:cy="560"
     inkscape:document-units="mm"
     inkscape:current-layer="layer1"
     showgrid="false"
     inkscape:window-width="1920"
     inkscape:window-height="1171"
     inkscape:window-x="1920"
     inkscape:window-y="0"
     inkscape:window-maximized="1" />
  <metadata
     id="metadata573093">
    <rdf:RDF>
      <cc:Work
         rdf:about="">
        <dc:format>image/svg+xml</dc:format>
        <dc:type
           rdf:resource="http://purl.org/dc/dcmitype/StillImage" />
        <dc:title></dc:title>
      </cc:Work>
    </rdf:RDF>
  </metadata>
  <g
     inkscape:label="Ebene 1"
     inkscape:groupmode="layer"
     id="layer1"
     transform="translate(0,-87)">
    <g
       id="use570353"
       style="fill:#73ba25;fill-opacity:1;stroke:none"
       transform="matrix(0.5831693,0,0,0.5831693,26,113)">
      <title
         id="title668771">key-stroke</title>
      <path
         id="path668773"
         d="M 186.26667,0 C 139.50527,0 101.6,37.905267 101.6,84.666667 c 0,5.291666 0.62653,10.3886 1.55787,15.375463 L 0,203.2 v 67.73333 h 101.6 v -33.86666 h 33.86667 V 203.2 h 33.86666 v -33.86667 l 1.55787,-1.55786 c 4.98687,0.93133 10.0838,1.55786 15.37547,1.55786 46.7614,0 84.66666,-37.90526 84.66666,-84.666663 C 270.93333,37.905267 233.02807,0 186.26667,0 Z m 0,135.46667 c -2.65007,0 -5.55414,-0.3302 -9.1948,-0.9906 l -17.526,-3.24274 -24.0792,24.0792 v 14.0208 H 101.6 V 203.2 H 67.733333 v 33.86667 H 33.866667 V 217.2208 L 139.7,111.38747 136.45727,93.861467 c -0.67734,-3.640667 -0.9906,-6.5532 -0.9906,-9.1948 0,-28.0162 22.7838,-50.8 50.8,-50.8 28.0162,0 50.8,22.7838 50.8,50.8 0,28.016203 -22.7838,50.800003 -50.8,50.800003 z M 169.33333,84.666667 c 0,-9.351963 7.58137,-16.933334 16.93334,-16.933334 9.35196,0 16.93333,7.581371 16.93333,16.933334 0,9.351962 -7.58137,16.933333 -16.93333,16.933333 -9.35197,0 -16.93334,-7.581371 -16.93334,-16.933333 z"
         inkscape:connector-curvature="0"
         style="stroke-width:0.26458332" />
    </g>
  </g>
</svg>
