<?xml version="1.0" encoding="UTF-8" standalone="no"?>
<!-- Created with Inkscape (http://www.inkscape.org/) -->

<svg
   xmlns:dc="http://purl.org/dc/elements/1.1/"
   xmlns:cc="http://creativecommons.org/ns#"
   xmlns:rdf="http://www.w3.org/1999/02/22-rdf-syntax-ns#"
   xmlns:svg="http://www.w3.org/2000/svg"
   xmlns="http://www.w3.org/2000/svg"
   xmlns:xlink="http://www.w3.org/1999/xlink"
   xmlns:sodipodi="http://sodipodi.sourceforge.net/DTD/sodipodi-0.dtd"
   xmlns:inkscape="http://www.inkscape.org/namespaces/inkscape"
   width="210mm"
   height="210mm"
   viewBox="0 0 210 210"
   version="1.1"
   id="svg8"
   inkscape:version="0.92.2 5c3e80d, 2017-08-06"
   sodipodi:docname="lock.svg">
  <defs
     id="defs2">
    <symbol
       id="lightbulb">
      <title
         id="lightbulb-title">Lightbulb</title>
      <path
         style="stroke-width:0.26458332"
         inkscape:connector-curvature="0"
         d="M 71.966667,113.24167 V 120.65 c 0,2.76463 -1.767417,5.11545 -4.233334,5.98726 v 2.47941 c 0,3.50705 -2.842948,6.35 -6.35,6.35 H 40.216667 c -3.507052,0 -6.35,-2.84295 -6.35,-6.35 v -2.47941 C 31.40075,125.76545 29.633333,123.41463 29.633333,120.65 v -7.40833 c 0,-1.7534 1.421607,-3.175 3.175,-3.175 h 35.983334 c 1.753393,0 3.175,1.4216 3.175,3.175 z m -38.1,-66.675003 c 0,-9.337146 7.596187,-16.933334 16.933333,-16.933334 2.338123,0 4.233333,-1.895475 4.233333,-4.233333 0,-2.337858 -1.89521,-4.233333 -4.233333,-4.233333 -14.005719,0 -25.4,11.394281 -25.4,25.4 0,2.337858 1.895475,4.233333 4.233333,4.233333 2.337859,0 4.233334,-1.895475 4.233334,-4.233333 z M 50.8,12.7 c 18.715037,0 33.866667,15.148454 33.866667,33.866667 0,20.532195 -9.890919,16.001206 -21.425959,42.333333 H 38.359292 C 26.807054,62.528979 16.933333,67.169506 16.933333,46.566667 16.933333,27.851365 32.081787,12.7 50.8,12.7 M 50.8,0 C 25.083823,0 4.2333333,20.84996 4.2333333,46.566667 c 0,26.916327 13.6781647,24.220223 23.9490247,50.978329 C 29.121629,99.992127 31.481712,101.6 34.102675,101.6 H 67.49706 c 2.620963,0 4.981046,-1.608138 5.920317,-4.055004 C 83.688502,70.78689 97.366667,73.482994 97.366667,46.566667 97.366667,20.84996 76.516177,0 50.8,0 Z"
         id="path69581" />
    </symbol>
    <symbol
       id="sun">
      <title
         id="sun-title">Sun</title>
      <path
         style="stroke-width:0.26458332"
         inkscape:connector-curvature="0"
         d="M 58.239025,129.09973 52.891002,116.0227 a 1.0562167,1.0562167 0 0 0 -1.5367,-0.499 l -12.013142,7.43585 c -7.796212,4.826 -17.540552,-2.25399 -15.36012,-11.15986 L 27.340983,98.077073 A 1.0564812,1.0564812 0 0 0 26.391129,96.769767 L 12.301802,95.724398 C 3.1593896,95.046535 -0.56541458,83.591929 6.4349313,77.667379 L 17.219083,68.540312 a 1.0562167,1.0562167 0 0 0 0,-1.615545 L 6.4346667,57.797435 C -0.5635625,51.875002 3.1564792,40.419073 12.301537,39.740681 l 14.089328,-1.045369 a 1.0564812,1.0564812 0 0 0 0.949854,-1.307306 L 23.98104,23.665127 C 21.801137,14.76031 31.543096,7.6790021 39.34116,12.505267 l 12.012877,7.43585 a 1.0564812,1.0564812 0 0 0 1.5367,-0.499269 L 58.23876,6.3648167 c 3.470275,-8.4854521 15.514638,-8.488098 18.985971,0 L 82.57249,19.441583 a 1.0567458,1.0567458 0 0 0 1.536964,0.499269 l 12.012877,-7.43585 c 7.795679,-4.8249416 17.541079,2.252398 15.360119,11.15986 l -3.35994,13.722615 a 1.0570104,1.0570104 0 0 0 0.94985,1.307306 l 14.08933,1.045369 c 9.14215,0.678127 12.86748,12.132204 5.86713,18.056754 l -10.78441,9.127331 a 1.0564812,1.0564812 0 0 0 0,1.615811 l 10.78441,9.127067 c 7.01437,5.937514 3.2602,17.380214 -5.86713,18.057018 l -14.08933,1.045369 a 1.0564812,1.0564812 0 0 0 -0.94959,1.307571 l 3.35968,13.722347 c 2.18043,8.90535 -7.56258,15.98639 -15.360119,11.16013 L 84.109454,115.5237 a 1.0567458,1.0567458 0 0 0 -1.536964,0.49927 l -5.347759,13.07676 c -3.481652,8.51377 -15.524427,8.46482 -18.985706,0 z m 4.448704,-17.08361 5.044017,12.33381 5.044016,-12.33355 c 2.727325,-6.6675 10.78918,-9.27788 16.904759,-5.49248 l 11.329989,7.01331 -3.168652,-12.94316 C 96.128681,93.597412 101.1174,86.746027 108.28946,86.214215 l 13.28896,-0.985838 -10.17164,-8.608483 c -5.49857,-4.654286 -5.48931,-13.12889 2.7e-4,-17.774709 L 121.57816,50.236702 108.28946,49.2506 C 101.10576,48.717465 96.131856,41.856025 97.841594,34.87076 L 101.01077,21.927608 89.680521,28.940919 C 83.555152,32.731604 75.49806,30.105085 72.775762,23.448169 L 67.731746,11.114617 62.687729,23.448698 c -2.726531,6.666971 -10.789179,9.277879 -16.904494,5.49275 L 34.452983,21.927873 37.621898,34.87076 c 1.712912,6.997171 -3.275806,13.847763 -10.447867,14.380105 l -13.288433,0.985837 10.171377,8.608748 c 5.498571,4.653492 5.48931,13.12836 0,17.774179 l -10.171642,8.608748 13.288963,0.985838 c 7.183702,0.53287 12.157604,7.39431 10.447602,14.379835 l -3.168915,12.94316 11.330252,-7.01331 c 6.135159,-3.7981 14.187488,-1.15147 16.904494,5.49222 z M 67.733333,101.6 c -18.674291,0 -33.866666,-15.19264 -33.866666,-33.866667 0,-18.674291 15.192375,-33.866666 33.866666,-33.866666 C 86.40736,33.866667 101.6,49.059042 101.6,67.733333 101.6,86.40736 86.40736,101.6 67.733333,101.6 Z m 0,-55.033333 c -11.6713,0 -21.166666,9.495366 -21.166666,21.166666 0,11.6713 9.495366,21.166667 21.166666,21.166667 C 79.404633,88.9 88.9,79.404633 88.9,67.733333 88.9,56.062033 79.404633,46.566667 67.733333,46.566667 Z"
         id="path69681" />
    </symbol>
    <symbol
       id="share-square">
      <title
         id="share-square-title">Share Square</title>
      <path
         style="stroke-width:0.26458332"
         inkscape:connector-curvature="0"
         d="M 148.67943,41.820042 110.57996,3.7285083 C 102.63875,-4.2126958 88.9,1.3485812 88.9,12.708467 V 27.842104 C 77.668437,28.339521 66.667062,29.575125 56.948917,32.601958 47.643521,35.499146 40.261646,39.899167 35.012312,45.677667 28.633208,52.705 25.4,61.542083 25.4,71.950792 c 0,16.323998 8.778346,29.753718 22.455187,38.301078 9.934046,6.21983 22.5552,-3.34724 18.790709,-14.74787 C 62.540885,83.037098 62.106704,76.738956 88.9,74.665417 V 88.9 c 0,11.37523 13.74987,16.91031 21.67996,8.979958 l 38.09947,-38.1 c 4.96094,-4.958291 4.96094,-13.001625 0,-17.959916 z M 101.6,88.9 V 61.425667 C 67.550506,61.934196 44.051008,67.561354 54.586187,99.483333 46.775687,94.601771 38.1,85.746167 38.1,71.950792 38.1,43.022837 72.268292,40.479398 101.6,40.240479 V 12.7 l 38.1,38.1 z m 6.54579,22.35544 a 21.869929,21.869929 0 0 0 5.54937,-2.46142 c 2.11032,-1.31022 4.83817,0.21855 4.83817,2.70245 v 11.2702 c 0,7.0141 -5.68589,12.7 -12.7,12.7 H 12.7 c -7.0141042,0 -12.7,-5.6859 -12.7,-12.7 V 29.633333 c 0,-7.014104 5.6858958,-12.7 12.7,-12.7 h 34.925 c 1.753394,0 3.175,1.421607 3.175,3.175 v 1.186921 c 0,1.300956 -0.79031,2.478881 -2.002631,2.950633 -3.625321,1.410494 -6.983942,3.052498 -10.067396,4.917282 A 3.2115125,3.2115125 0 0 1 37.06839,29.633333 H 14.2875 a 1.5875,1.5875 0 0 0 -1.5875,1.5875 v 89.958337 a 1.5875,1.5875 0 0 0 1.5875,1.5875 h 89.95833 a 1.5875,1.5875 0 0 0 1.5875,-1.5875 V 114.309 c 0,-1.42082 0.94695,-2.66145 2.31246,-3.05356 z"
         id="path69649" />
    </symbol>
    <symbol
       id="icon-key-stroke">
      <title
         id="title76398">key-stroke</title>
      <path
         style="stroke-width:0.26458332"
         inkscape:connector-curvature="0"
         d="M 186.26667,0 C 139.50527,0 101.6,37.905267 101.6,84.666667 c 0,5.291666 0.62653,10.3886 1.55787,15.375463 L 0,203.2 v 67.73333 h 101.6 v -33.86666 h 33.86667 V 203.2 h 33.86666 v -33.86667 l 1.55787,-1.55786 c 4.98687,0.93133 10.0838,1.55786 15.37547,1.55786 46.7614,0 84.66666,-37.90526 84.66666,-84.666663 C 270.93333,37.905267 233.02807,0 186.26667,0 Z m 0,135.46667 c -2.65007,0 -5.55414,-0.3302 -9.1948,-0.9906 l -17.526,-3.24274 -24.0792,24.0792 v 14.0208 H 101.6 V 203.2 H 67.733333 v 33.86667 H 33.866667 V 217.2208 L 139.7,111.38747 136.45727,93.861467 c -0.67734,-3.640667 -0.9906,-6.5532 -0.9906,-9.1948 0,-28.0162 22.7838,-50.8 50.8,-50.8 28.0162,0 50.8,22.7838 50.8,50.8 0,28.016203 -22.7838,50.800003 -50.8,50.800003 z M 169.33333,84.666667 c 0,-9.351963 7.58137,-16.933334 16.93334,-16.933334 9.35196,0 16.93333,7.581371 16.93333,16.933334 0,9.351962 -7.58137,16.933333 -16.93333,16.933333 -9.35197,0 -16.93334,-7.581371 -16.93334,-16.933333 z"
         id="path76400" />
    </symbol>
    <symbol
       id="icon-document-properties-symbolic">
      <title
         id="title73219">document-properties-symbolic</title>
      <path
         style="stroke-width:0.26458332"
         inkscape:connector-curvature="0"
         d="M 3.7001979,7.4006604 H 2.1309542 V 1.5859125 h 2.4119416 l 1.8004896,1.8004896 v 2.9487812 l 1.057275,1.5941146 V 3.1551562 C 7.3996021,3.0133396 7.3384833,2.8728458 7.2355604,2.7752146 L 5.1376792,0.6937375 C 5.0400479,0.59081458 4.8995542,0.52969583 4.7577375,0.5286375 H 1.6025812 c -0.2767541,0 -0.5286375,0.25188333 -0.5286375,0.5286375 v 6.8556187 c 0,0.2767542 0.2518834,0.5286375 0.5286375,0.5286375 h 2.6513896 z"
         id="path73221" />
      <path
         style="stroke-width:0.26458332"
         inkscape:connector-curvature="0"
         d="M 4.7677917,4.1563396 C 4.5960771,4.1251187 4.4153667,4.1322625 4.2423292,4.1547521 l 0.5159375,0.9138708 c 0.1060979,0.1875896 -0.012436,0.403225 -0.2378605,0.5334 l -0.4069291,0.23495 C 3.8859354,5.9634438 3.6324646,5.946775 3.5263667,5.7589208 L 3.0106937,4.84505 C 2.9014208,4.9805167 2.8014083,5.1308 2.7389667,5.2932542 2.4399875,6.0706 2.8641146,6.8217521 3.6859104,6.9712417 3.857625,7.0024627 4.0383354,6.9953187 4.2113729,6.9728317 4.2253959,6.9707117 5.0141187,8.43439 5.0141187,8.43439 L 6.8667312,8.4671958 5.4567667,6.2841187 C 5.5660396,6.1486521 5.6528229,5.9967813 5.7152646,5.8343271 6.0142437,5.0569813 5.5901167,4.3058292 4.7683208,4.1563396 Z"
         id="path73223" />
    </symbol>
    <symbol
       id="icon-preferences-other-symbolic">
      <title
         id="title73635">preferences-other-symbolic</title>
      <path
         style="stroke-width:0.26458332"
         inkscape:connector-curvature="0"
         d="M 0.00105833,6.35 C 0.003175,6.2314667 0.06058958,6.0692771 0.161925,5.9772021 L 1.3057187,4.8572208 C 1.42875,4.7283687 1.7219083,4.7024396 1.8407062,4.7741417 1.8833042,4.7752 2.441575,5.1083104 2.5222729,5.2321354 2.8485042,5.7327271 2.3402396,6.1991875 1.9010312,6.0507562 L 1.7160875,5.9388375 0.86809792,6.7704229 C 0.53101875,7.0490292 -0.0269875,6.8191063 7.9375e-4,6.3497354 Z"
         id="path73637" />
      <path
         style="stroke-width:0.26458332"
         inkscape:connector-curvature="0"
         d="M 6.1483875,0.06270625 C 6.3544979,0.00899583 6.5666937,0.00396875 6.7677771,0.01984375 L 6.048375,1.2401021 C 5.9004729,1.4909271 5.9835521,1.806575 6.2357,1.9531542 L 6.6984562,2.2219708 C 6.9506042,2.36855 7.2686333,2.2857354 7.4165354,2.0349104 L 8.1359375,0.81465208 C 8.2481208,0.981075 8.3478687,1.1670771 8.4015792,1.3718646 8.6590187,2.3521458 8.0674104,3.3551812 7.0805146,3.6123562 6.8744042,3.6660667 6.6622083,3.6710937 6.461125,3.6552187 L 6.0367333,4.244975 4.2325396,4.2330687 c 0,0 0.8035396,-1.363927 0.8609541,-1.3729229 C 4.9813104,2.6937229 4.8815625,2.5077208 4.8278521,2.3029333 4.5704125,1.3226521 5.1620208,0.31961667 6.1489167,0.06244167 Z"
         id="path73639" />
      <path
         style="stroke-width:0.26458332"
         inkscape:connector-curvature="0"
         d="M 1.9044708,0.38047083 C 1.7827625,0.40534167 1.6697854,0.44979167 1.5576021,0.49635833 1.5488708,0.82682292 1.6036396,1.2594167 1.4750521,1.3726583 1.3488458,1.4843125 0.92630625,1.3909146 0.59981042,1.3559896 0.53048958,1.4811375 0.47545625,1.6126354 0.43471042,1.7528646 0.6873875,1.9624146 1.0374312,2.1968354 1.0456333,2.3648458 1.0541,2.5347083 0.71463958,2.790825 0.4841875,3.0263042 0.53869167,3.1628292 0.61647917,3.2874479 0.69876458,3.406775 1.0202333,3.3398354 1.4208125,3.2091312 1.5573375,3.3075562 1.6965083,3.4078333 1.6975667,3.8396333 1.7388417,4.1674521 1.8706042,4.2071396 2.009775,4.22275 2.1515917,4.2335979 2.3002875,3.940175 2.4513646,3.5350979 2.6138187,3.489325 2.7807708,3.4424937 3.1228771,3.7316833 3.4065104,3.9028687 3.5221333,3.8227 3.6247917,3.7245396 3.7203062,3.6216167 3.5861625,3.3186687 3.3393063,2.9379333 3.4065104,2.778125 c 0.067204,-0.1598083 0.5154083,-0.2484438 0.8255,-0.3638021 0.00212,-0.038894 0.016404,-0.0762 0.016404,-0.1158875 0,-0.1013354 -0.018256,-0.2005542 -0.033073,-0.2976562 C 3.8951958,1.9155833 3.4401125,1.8729854 3.3567687,1.7195271 3.2739542,1.5671271 3.4845625,1.1578167 3.5880146,0.8429625 3.4816521,0.74850625 3.3662938,0.66463333 3.2411458,0.59478333 2.9765625,0.79322083 2.6683229,1.1210396 2.4981958,1.0908771 2.3307146,1.0612437 2.1478875,0.657225 1.9698229,0.37967708 c -0.021167,0.003704 -0.044979,-0.004233 -0.066146,0 z m 0.3302,0.99218747 c 0.4923896,0 0.8916459,0.3997854 0.8916459,0.8929688 0,0.4931833 -0.3992563,0.8929687 -0.8916459,0.8929687 -0.4923896,0 -0.8916458,-0.3997854 -0.8916458,-0.8929687 0,-0.4931834 0.3992562,-0.8929688 0.8916458,-0.8929688 z"
         id="path73641" />
      <path
         style="stroke-width:0.26458332"
         inkscape:connector-curvature="0"
         d="m 1.5859125,4.7625 h 5.2839937 l 0.00423,3.2080729 c 0,0.26035 -0.2497667,0.4960938 -0.5262563,0.4960938 h -4.2291 C 1.8338237,8.4666667 1.590407,8.2393896 1.590407,7.9375 Z"
         id="path73643" />
      <path
         style="stroke-width:0.26458332"
         inkscape:connector-curvature="0"
         d="M 8.4460292,6.3378292 C 8.4439125,6.2192958 8.3864979,6.0571062 8.2851625,5.9650312 L 7.1413687,4.84505 C 7.0183375,4.7161979 6.7251792,4.6902687 6.6063812,4.7619708 6.5637833,4.7630292 6.0055125,5.0961396 5.9248146,5.2199646 5.5985833,5.7205562 6.1068479,6.1870167 6.5460562,6.0385854 L 6.731,5.9266667 7.5789896,6.7582521 C 7.9160687,7.0368583 8.474075,6.8072 8.4462937,6.3375646 Z"
         id="path73645" />
    </symbol>
    <symbol
       id="icon-channel-secure-symbolic">
      <title
         id="title75609">channel-secure-symbolic</title>
      <path
         style="stroke-width:0.26458332"
         inkscape:connector-curvature="0"
         d="m 3.7041667,1.0583333 c -0.8702146,0 -1.5875,0.7172854 -1.5875,1.5875 v 1.0583334 c 0,0 -0.5291667,0 -0.5291667,0.5291666 V 6.8791667 H 6.8791667 V 4.2333333 c 0,0 0,-0.5291666 -0.5291667,-0.5291666 V 2.6458333 c 0,-0.8702146 -0.7172854,-1.5875 -1.5875,-1.5875 z m 0,1.0583334 H 4.7625 c 0.3024187,0 0.5291667,0.2267479 0.5291667,0.5291666 V 3.7041667 H 3.175 V 2.6458333 c 0,-0.3024187 0.2267479,-0.5291666 0.5291667,-0.5291666 z"
         id="path75611" />
    </symbol>
  </defs>
  <sodipodi:namedview
     id="base"
     pagecolor="#ffffff"
     bordercolor="#666666"
     borderopacity="1.0"
     inkscape:pageopacity="0.0"
     inkscape:pageshadow="2"
     inkscape:zoom="0.7"
     inkscape:cx="-11.452196"
     inkscape:cy="291.49825"
     inkscape:document-units="mm"
     inkscape:current-layer="layer1"
     showgrid="false"
     inkscape:window-width="1920"
     inkscape:window-height="1171"
     inkscape:window-x="1920"
     inkscape:window-y="0"
     inkscape:window-maximized="1"
     inkscape:snap-global="true" />
  <metadata
     id="metadata5">
    <rdf:RDF>
      <cc:Work
         rdf:about="">
        <dc:format>image/svg+xml</dc:format>
        <dc:type
           rdf:resource="http://purl.org/dc/dcmitype/StillImage" />
        <dc:title />
      </cc:Work>
    </rdf:RDF>
  </metadata>
  <g
     inkscape:label="Ebene 1"
     inkscape:groupmode="layer"
     id="layer1"
     transform="translate(0,-87)">
    <use
       id="use532454"
       transform="matrix(29.858268,0,0,29.858268,-21.400002,73.499999)"
       xlink:href="#icon-channel-secure-symbolic"
       x="0"
       y="0"
       width="100%"
       height="100%"
       style="fill:#73ba25;fill-opacity:1" />
  </g>
</svg>
