<?xml version="1.0" encoding="UTF-8" standalone="no"?>
<!-- Created with Inkscape (http://www.inkscape.org/) -->

<svg
   xmlns:dc="http://purl.org/dc/elements/1.1/"
   xmlns:cc="http://creativecommons.org/ns#"
   xmlns:rdf="http://www.w3.org/1999/02/22-rdf-syntax-ns#"
   xmlns:svg="http://www.w3.org/2000/svg"
   xmlns="http://www.w3.org/2000/svg"
   xmlns:xlink="http://www.w3.org/1999/xlink"
   xmlns:sodipodi="http://sodipodi.sourceforge.net/DTD/sodipodi-0.dtd"
   xmlns:inkscape="http://www.inkscape.org/namespaces/inkscape"
   width="210mm"
   height="210mm"
   viewBox="0 0 210 210"
   version="1.1"
   id="svg8"
   inkscape:version="0.92.2 5c3e80d, 2017-08-06"
   sodipodi:docname="update.svg">
  <defs
     id="defs2">
    <symbol
       id="lightbulb">
      <title
         id="lightbulb-title">Lightbulb</title>
      <path
         style="stroke-width:0.26458332"
         inkscape:connector-curvature="0"
         d="M 71.966667,113.24167 V 120.65 c 0,2.76463 -1.767417,5.11545 -4.233334,5.98726 v 2.47941 c 0,3.50705 -2.842948,6.35 -6.35,6.35 H 40.216667 c -3.507052,0 -6.35,-2.84295 -6.35,-6.35 v -2.47941 C 31.40075,125.76545 29.633333,123.41463 29.633333,120.65 v -7.40833 c 0,-1.7534 1.421607,-3.175 3.175,-3.175 h 35.983334 c 1.753393,0 3.175,1.4216 3.175,3.175 z m -38.1,-66.675003 c 0,-9.337146 7.596187,-16.933334 16.933333,-16.933334 2.338123,0 4.233333,-1.895475 4.233333,-4.233333 0,-2.337858 -1.89521,-4.233333 -4.233333,-4.233333 -14.005719,0 -25.4,11.394281 -25.4,25.4 0,2.337858 1.895475,4.233333 4.233333,4.233333 2.337859,0 4.233334,-1.895475 4.233334,-4.233333 z M 50.8,12.7 c 18.715037,0 33.866667,15.148454 33.866667,33.866667 0,20.532195 -9.890919,16.001206 -21.425959,42.333333 H 38.359292 C 26.807054,62.528979 16.933333,67.169506 16.933333,46.566667 16.933333,27.851365 32.081787,12.7 50.8,12.7 M 50.8,0 C 25.083823,0 4.2333333,20.84996 4.2333333,46.566667 c 0,26.916327 13.6781647,24.220223 23.9490247,50.978329 C 29.121629,99.992127 31.481712,101.6 34.102675,101.6 H 67.49706 c 2.620963,0 4.981046,-1.608138 5.920317,-4.055004 C 83.688502,70.78689 97.366667,73.482994 97.366667,46.566667 97.366667,20.84996 76.516177,0 50.8,0 Z"
         id="path69581" />
    </symbol>
    <symbol
       id="sun">
      <title
         id="sun-title">Sun</title>
      <path
         style="stroke-width:0.26458332"
         inkscape:connector-curvature="0"
         d="M 58.239025,129.09973 52.891002,116.0227 a 1.0562167,1.0562167 0 0 0 -1.5367,-0.499 l -12.013142,7.43585 c -7.796212,4.826 -17.540552,-2.25399 -15.36012,-11.15986 L 27.340983,98.077073 A 1.0564812,1.0564812 0 0 0 26.391129,96.769767 L 12.301802,95.724398 C 3.1593896,95.046535 -0.56541458,83.591929 6.4349313,77.667379 L 17.219083,68.540312 a 1.0562167,1.0562167 0 0 0 0,-1.615545 L 6.4346667,57.797435 C -0.5635625,51.875002 3.1564792,40.419073 12.301537,39.740681 l 14.089328,-1.045369 a 1.0564812,1.0564812 0 0 0 0.949854,-1.307306 L 23.98104,23.665127 C 21.801137,14.76031 31.543096,7.6790021 39.34116,12.505267 l 12.012877,7.43585 a 1.0564812,1.0564812 0 0 0 1.5367,-0.499269 L 58.23876,6.3648167 c 3.470275,-8.4854521 15.514638,-8.488098 18.985971,0 L 82.57249,19.441583 a 1.0567458,1.0567458 0 0 0 1.536964,0.499269 l 12.012877,-7.43585 c 7.795679,-4.8249416 17.541079,2.252398 15.360119,11.15986 l -3.35994,13.722615 a 1.0570104,1.0570104 0 0 0 0.94985,1.307306 l 14.08933,1.045369 c 9.14215,0.678127 12.86748,12.132204 5.86713,18.056754 l -10.78441,9.127331 a 1.0564812,1.0564812 0 0 0 0,1.615811 l 10.78441,9.127067 c 7.01437,5.937514 3.2602,17.380214 -5.86713,18.057018 l -14.08933,1.045369 a 1.0564812,1.0564812 0 0 0 -0.94959,1.307571 l 3.35968,13.722347 c 2.18043,8.90535 -7.56258,15.98639 -15.360119,11.16013 L 84.109454,115.5237 a 1.0567458,1.0567458 0 0 0 -1.536964,0.49927 l -5.347759,13.07676 c -3.481652,8.51377 -15.524427,8.46482 -18.985706,0 z m 4.448704,-17.08361 5.044017,12.33381 5.044016,-12.33355 c 2.727325,-6.6675 10.78918,-9.27788 16.904759,-5.49248 l 11.329989,7.01331 -3.168652,-12.94316 C 96.128681,93.597412 101.1174,86.746027 108.28946,86.214215 l 13.28896,-0.985838 -10.17164,-8.608483 c -5.49857,-4.654286 -5.48931,-13.12889 2.7e-4,-17.774709 L 121.57816,50.236702 108.28946,49.2506 C 101.10576,48.717465 96.131856,41.856025 97.841594,34.87076 L 101.01077,21.927608 89.680521,28.940919 C 83.555152,32.731604 75.49806,30.105085 72.775762,23.448169 L 67.731746,11.114617 62.687729,23.448698 c -2.726531,6.666971 -10.789179,9.277879 -16.904494,5.49275 L 34.452983,21.927873 37.621898,34.87076 c 1.712912,6.997171 -3.275806,13.847763 -10.447867,14.380105 l -13.288433,0.985837 10.171377,8.608748 c 5.498571,4.653492 5.48931,13.12836 0,17.774179 l -10.171642,8.608748 13.288963,0.985838 c 7.183702,0.53287 12.157604,7.39431 10.447602,14.379835 l -3.168915,12.94316 11.330252,-7.01331 c 6.135159,-3.7981 14.187488,-1.15147 16.904494,5.49222 z M 67.733333,101.6 c -18.674291,0 -33.866666,-15.19264 -33.866666,-33.866667 0,-18.674291 15.192375,-33.866666 33.866666,-33.866666 C 86.40736,33.866667 101.6,49.059042 101.6,67.733333 101.6,86.40736 86.40736,101.6 67.733333,101.6 Z m 0,-55.033333 c -11.6713,0 -21.166666,9.495366 -21.166666,21.166666 0,11.6713 9.495366,21.166667 21.166666,21.166667 C 79.404633,88.9 88.9,79.404633 88.9,67.733333 88.9,56.062033 79.404633,46.566667 67.733333,46.566667 Z"
         id="path69681" />
    </symbol>
    <symbol
       id="share-square">
      <title
         id="share-square-title">Share Square</title>
      <path
         style="stroke-width:0.26458332"
         inkscape:connector-curvature="0"
         d="M 148.67943,41.820042 110.57996,3.7285083 C 102.63875,-4.2126958 88.9,1.3485812 88.9,12.708467 V 27.842104 C 77.668437,28.339521 66.667062,29.575125 56.948917,32.601958 47.643521,35.499146 40.261646,39.899167 35.012312,45.677667 28.633208,52.705 25.4,61.542083 25.4,71.950792 c 0,16.323998 8.778346,29.753718 22.455187,38.301078 9.934046,6.21983 22.5552,-3.34724 18.790709,-14.74787 C 62.540885,83.037098 62.106704,76.738956 88.9,74.665417 V 88.9 c 0,11.37523 13.74987,16.91031 21.67996,8.979958 l 38.09947,-38.1 c 4.96094,-4.958291 4.96094,-13.001625 0,-17.959916 z M 101.6,88.9 V 61.425667 C 67.550506,61.934196 44.051008,67.561354 54.586187,99.483333 46.775687,94.601771 38.1,85.746167 38.1,71.950792 38.1,43.022837 72.268292,40.479398 101.6,40.240479 V 12.7 l 38.1,38.1 z m 6.54579,22.35544 a 21.869929,21.869929 0 0 0 5.54937,-2.46142 c 2.11032,-1.31022 4.83817,0.21855 4.83817,2.70245 v 11.2702 c 0,7.0141 -5.68589,12.7 -12.7,12.7 H 12.7 c -7.0141042,0 -12.7,-5.6859 -12.7,-12.7 V 29.633333 c 0,-7.014104 5.6858958,-12.7 12.7,-12.7 h 34.925 c 1.753394,0 3.175,1.421607 3.175,3.175 v 1.186921 c 0,1.300956 -0.79031,2.478881 -2.002631,2.950633 -3.625321,1.410494 -6.983942,3.052498 -10.067396,4.917282 A 3.2115125,3.2115125 0 0 1 37.06839,29.633333 H 14.2875 a 1.5875,1.5875 0 0 0 -1.5875,1.5875 v 89.958337 a 1.5875,1.5875 0 0 0 1.5875,1.5875 h 89.95833 a 1.5875,1.5875 0 0 0 1.5875,-1.5875 V 114.309 c 0,-1.42082 0.94695,-2.66145 2.31246,-3.05356 z"
         id="path69649" />
    </symbol>
  </defs>
  <sodipodi:namedview
     id="base"
     pagecolor="#ffffff"
     bordercolor="#666666"
     borderopacity="1.0"
     inkscape:pageopacity="0.0"
     inkscape:pageshadow="2"
     inkscape:zoom="0.35"
     inkscape:cx="-1.1428918"
     inkscape:cy="560"
     inkscape:document-units="mm"
     inkscape:current-layer="layer1"
     showgrid="false"
     inkscape:window-width="1552"
     inkscape:window-height="910"
     inkscape:window-x="233"
     inkscape:window-y="0"
     inkscape:window-maximized="0" />
  <metadata
     id="metadata5">
    <rdf:RDF>
      <cc:Work
         rdf:about="">
        <dc:format>image/svg+xml</dc:format>
        <dc:type
           rdf:resource="http://purl.org/dc/dcmitype/StillImage" />
        <dc:title></dc:title>
      </cc:Work>
    </rdf:RDF>
  </metadata>
  <g
     inkscape:label="Ebene 1"
     inkscape:groupmode="layer"
     id="layer1"
     transform="translate(0,-87)">
    <use
       id="use137311"
       style="fill:#73ba25;fill-opacity:1;stroke:none"
       xlink:href="#share-square"
       x="0"
       y="0"
       width="100%"
       height="100%"
       transform="matrix(0,-1.2190746,-1.2190746,0,187.57195,284.89357)" />
  </g>
</svg>
