<?xml version="1.0" encoding="UTF-8" standalone="no"?>
<!-- Created with Inkscape (http://www.inkscape.org/) -->

<svg
   xmlns:dc="http://purl.org/dc/elements/1.1/"
   xmlns:cc="http://creativecommons.org/ns#"
   xmlns:rdf="http://www.w3.org/1999/02/22-rdf-syntax-ns#"
   xmlns:svg="http://www.w3.org/2000/svg"
   xmlns="http://www.w3.org/2000/svg"
   xmlns:xlink="http://www.w3.org/1999/xlink"
   xmlns:sodipodi="http://sodipodi.sourceforge.net/DTD/sodipodi-0.dtd"
   xmlns:inkscape="http://www.inkscape.org/namespaces/inkscape"
   width="210mm"
   height="210mm"
   viewBox="0 0 210 210"
   version="1.1"
   id="svg8"
   inkscape:version="0.92.2 5c3e80d, 2017-08-06"
   sodipodi:docname="work.svg">
  <defs
     id="defs2">
    <symbol
       id="sun">
      <title
         id="sun-title">Sun</title>
      <path
         style="stroke-width:0.26458332"
         inkscape:connector-curvature="0"
         d="M 58.239025,129.09973 52.891002,116.0227 a 1.0562167,1.0562167 0 0 0 -1.5367,-0.499 l -12.013142,7.43585 c -7.796212,4.826 -17.540552,-2.25399 -15.36012,-11.15986 L 27.340983,98.077073 A 1.0564812,1.0564812 0 0 0 26.391129,96.769767 L 12.301802,95.724398 C 3.1593896,95.046535 -0.56541458,83.591929 6.4349313,77.667379 L 17.219083,68.540312 a 1.0562167,1.0562167 0 0 0 0,-1.615545 L 6.4346667,57.797435 C -0.5635625,51.875002 3.1564792,40.419073 12.301537,39.740681 l 14.089328,-1.045369 a 1.0564812,1.0564812 0 0 0 0.949854,-1.307306 L 23.98104,23.665127 C 21.801137,14.76031 31.543096,7.6790021 39.34116,12.505267 l 12.012877,7.43585 a 1.0564812,1.0564812 0 0 0 1.5367,-0.499269 L 58.23876,6.3648167 c 3.470275,-8.4854521 15.514638,-8.488098 18.985971,0 L 82.57249,19.441583 a 1.0567458,1.0567458 0 0 0 1.536964,0.499269 l 12.012877,-7.43585 c 7.795679,-4.8249416 17.541079,2.252398 15.360119,11.15986 l -3.35994,13.722615 a 1.0570104,1.0570104 0 0 0 0.94985,1.307306 l 14.08933,1.045369 c 9.14215,0.678127 12.86748,12.132204 5.86713,18.056754 l -10.78441,9.127331 a 1.0564812,1.0564812 0 0 0 0,1.615811 l 10.78441,9.127067 c 7.01437,5.937514 3.2602,17.380214 -5.86713,18.057018 l -14.08933,1.045369 a 1.0564812,1.0564812 0 0 0 -0.94959,1.307571 l 3.35968,13.722347 c 2.18043,8.90535 -7.56258,15.98639 -15.360119,11.16013 L 84.109454,115.5237 a 1.0567458,1.0567458 0 0 0 -1.536964,0.49927 l -5.347759,13.07676 c -3.481652,8.51377 -15.524427,8.46482 -18.985706,0 z m 4.448704,-17.08361 5.044017,12.33381 5.044016,-12.33355 c 2.727325,-6.6675 10.78918,-9.27788 16.904759,-5.49248 l 11.329989,7.01331 -3.168652,-12.94316 C 96.128681,93.597412 101.1174,86.746027 108.28946,86.214215 l 13.28896,-0.985838 -10.17164,-8.608483 c -5.49857,-4.654286 -5.48931,-13.12889 2.7e-4,-17.774709 L 121.57816,50.236702 108.28946,49.2506 C 101.10576,48.717465 96.131856,41.856025 97.841594,34.87076 L 101.01077,21.927608 89.680521,28.940919 C 83.555152,32.731604 75.49806,30.105085 72.775762,23.448169 L 67.731746,11.114617 62.687729,23.448698 c -2.726531,6.666971 -10.789179,9.277879 -16.904494,5.49275 L 34.452983,21.927873 37.621898,34.87076 c 1.712912,6.997171 -3.275806,13.847763 -10.447867,14.380105 l -13.288433,0.985837 10.171377,8.608748 c 5.498571,4.653492 5.48931,13.12836 0,17.774179 l -10.171642,8.608748 13.288963,0.985838 c 7.183702,0.53287 12.157604,7.39431 10.447602,14.379835 l -3.168915,12.94316 11.330252,-7.01331 c 6.135159,-3.7981 14.187488,-1.15147 16.904494,5.49222 z M 67.733333,101.6 c -18.674291,0 -33.866666,-15.19264 -33.866666,-33.866667 0,-18.674291 15.192375,-33.866666 33.866666,-33.866666 C 86.40736,33.866667 101.6,49.059042 101.6,67.733333 101.6,86.40736 86.40736,101.6 67.733333,101.6 Z m 0,-55.033333 c -11.6713,0 -21.166666,9.495366 -21.166666,21.166666 0,11.6713 9.495366,21.166667 21.166666,21.166667 C 79.404633,88.9 88.9,79.404633 88.9,67.733333 88.9,56.062033 79.404633,46.566667 67.733333,46.566667 Z"
         id="path69681" />
    </symbol>
    <symbol
       id="icon-system-run-symbolic">
      <title
         id="title850843">system-run-symbolic</title>
      <path
         style="stroke-width:0.26458332"
         inkscape:connector-curvature="0"
         d="M 6.0192708,0.13229167 C 5.8922708,0.36274375 5.7718854,0.66463333 5.6388,0.89296875 5.5890583,0.88926458 5.5406396,0.8763 5.4898396,0.8763 5.3138917,0.8763 5.1405896,0.9019646 4.9770771,0.9424458 4.8156812,0.739775 4.6434375,0.46725417 4.4809833,0.26431875 4.3304354,0.31988125 4.1886187,0.384175 4.0510354,0.46275625 4.1018354,0.71807917 4.1976146,1.0294937 4.2494729,1.2895792 4.0679688,1.4213417 3.9182146,1.5710958 3.7864521,1.7526 3.5263667,1.7007417 3.2149521,1.6049625 2.9596292,1.5541625 c -0.078581,0.1375833 -0.142875,0.2794 -0.1984375,0.4299479 0.2026708,0.1624542 0.4754562,0.3346979 0.6781271,0.4960938 -0.040481,0.1632479 -0.066146,0.3368145 -0.066146,0.5127625 0,0.050535 0.012965,0.099219 0.016669,0.1489604 -0.2283354,0.1328208 -0.5304896,0.2534708 -0.7606771,0.3804708 0.026987,0.1455208 0.067998,0.2928938 0.1158875,0.4299479 0.2600854,-0.00529 0.5818187,-0.050006 0.8434917,-0.049477 0.098954,0.2074334 0.2225145,0.3989917 0.3804708,0.5622396 C 3.8779977,4.7127584 3.731948,4.998773 3.6382855,5.2424543 3.750998,5.3353233 3.8761459,5.4149626 4.0020876,5.4906334 4.19735,5.3213 4.4124563,5.0823812 4.6140688,4.911725 4.8140938,5.003006 5.0313167,5.0522187 5.2591229,5.0770896 5.3461709,5.3295021 5.4202542,5.6528229 5.5073021,5.9039125 5.6668458,5.9028525 5.8179229,5.8965025 5.9703229,5.8708395 6.0129208,5.6099604 6.0287958,5.2789667 6.0695417,5.0109437 6.2865,4.9490312 6.4989604,4.8696562 6.6815229,4.7463604 6.9061542,4.886325 7.1572437,5.0792062 7.3760542,5.2093812 7.4943229,5.108575 7.6059771,4.9969208 7.7067833,4.8786521 7.5766083,4.6598417 7.3837271,4.4087521 7.2437625,4.1841208 7.3670583,4.0015583 7.4464333,3.7893625 7.5083458,3.5721396 7.7763687,3.5313937 8.1073625,3.5155187 8.3682417,3.4729208 8.3939062,3.3205208 8.4005208,3.1694437 8.4013146,3.0099 8.150225,2.9228521 7.8269042,2.8490333 7.5744917,2.7617208 7.5496208,2.5341792 7.5004083,2.3169562 7.4091271,2.1166667 7.5797833,1.9150542 7.8184375,1.7002125 7.9880354,1.5046854 7.9126292,1.3787437 7.8329896,1.2535958 7.7398562,1.1408833 7.4964396,1.2345458 7.2101604,1.3805958 6.9625104,1.4716125 6.7992625,1.3139208 6.6077042,1.1903604 6.4002708,1.0911417 6.3997417,0.82946875 6.4447208,0.50773542 6.4500125,0.24765 6.3129583,0.19976042 6.1655854,0.15901458 6.0200646,0.1317625 Z M 5.4901042,1.9348979 c 0.5844645,0 1.0583333,0.4738688 1.0583333,1.0583333 0,0.5844646 -0.4738688,1.0583334 -1.0583333,1.0583334 -0.5844646,0 -1.0583334,-0.4738688 -1.0583334,-1.0583334 0,-0.5844645 0.4738688,-1.0583333 1.0583334,-1.0583333 z"
         id="path850845" />
      <path
         style="stroke-width:0.26458332"
         inkscape:connector-curvature="0"
         d="m 1.9513021,4.1010417 c -0.1217084,0.024871 -0.23495,0.069321 -0.3473979,0.1158875 -0.00873,0.3304645 0.046038,0.7630583 -0.082815,0.8765645 C 1.3946187,5.2051479 0.97155,5.11175 0.644525,5.076825 0.57493958,5.2019729 0.51990625,5.3334708 0.47916042,5.4737 0.73210208,5.68325 1.082675,5.9176708 1.0911417,6.0856812 1.0996083,6.2555437 0.75961875,6.5116604 0.52890208,6.7471396 0.58367083,6.8836646 0.66119375,7.0082833 0.74400833,7.1276104 1.0660062,7.0606708 1.4671146,6.9299667 1.6039042,7.0283917 c 0.1394354,0.100277 0.1402291,0.532077 0.1820333,0.8598958 0.1320271,0.039688 0.2711979,0.055298 0.4132792,0.066146 0.1489604,-0.2934229 0.300302,-0.6985 0.4630208,-0.7442729 0.1669521,-0.046831 0.5098521,0.2423583 0.79375,0.4135438 C 3.5716104,7.5435354 3.6745333,7.445375 3.7703125,7.3424521 3.6359042,7.0395042 3.3887833,6.6587687 3.4559875,6.4989604 3.5231917,6.3391521 3.9721896,6.2505167 4.2828104,6.1351583 c 0.00238,-0.038894 0.016669,-0.0762 0.016669,-0.1158875 0,-0.1013354 -0.018256,-0.2005541 -0.033073,-0.2976562 C 3.9457312,5.6364187 3.4901187,5.5938208 3.4065104,5.4403625 3.3236958,5.2879625 3.5345687,4.8786521 3.6380208,4.5637979 3.5316583,4.4693417 3.4160354,4.3854688 3.2906229,4.3156188 3.0255104,4.5140563 2.7167417,4.841875 2.54635,4.8117125 2.3786042,4.7820792 2.1955125,4.3780604 2.0171833,4.1005125 c -0.021167,0.0037 -0.045244,-0.00423 -0.066146,0 z m 0.3307291,0.9921875 c 0.4931834,0 0.8929688,0.3997854 0.8929688,0.8929687 0,0.4931833 -0.3997854,0.8929688 -0.8929688,0.8929688 -0.4931833,0 -0.8929687,-0.3997855 -0.8929687,-0.8929688 0,-0.4931833 0.3997854,-0.8929687 0.8929687,-0.8929687 z"
         id="path850847" />
    </symbol>
  </defs>
  <sodipodi:namedview
     id="base"
     pagecolor="#ffffff"
     bordercolor="#666666"
     borderopacity="1.0"
     inkscape:pageopacity="0.0"
     inkscape:pageshadow="2"
     inkscape:zoom="0.7"
     inkscape:cx="316.9066"
     inkscape:cy="413.73181"
     inkscape:document-units="mm"
     inkscape:current-layer="layer1"
     showgrid="false"
     inkscape:window-width="1552"
     inkscape:window-height="910"
     inkscape:window-x="2288"
     inkscape:window-y="71"
     inkscape:window-maximized="0"
     inkscape:snap-global="true" />
  <metadata
     id="metadata5">
    <rdf:RDF>
      <cc:Work
         rdf:about="">
        <dc:format>image/svg+xml</dc:format>
        <dc:type
           rdf:resource="http://purl.org/dc/dcmitype/StillImage" />
        <dc:title />
      </cc:Work>
    </rdf:RDF>
  </metadata>
  <g
     inkscape:label="Ebene 1"
     inkscape:groupmode="layer"
     id="layer1"
     transform="translate(0,-87)">
    <use
       id="use875301"
       transform="matrix(25.8768,0,0,25.8768,-9.899138,87.377562)"
       style="fill:#73ba25;fill-opacity:1;stroke:none"
       xlink:href="#icon-system-run-symbolic"
       x="0"
       y="0"
       width="100%"
       height="100%" />
  </g>
</svg>
