<svg width="1em" height="1em" viewbox="0 0 16 16" class="bi bi-chip-fill" fill="currentColor" xmlns:svg="http://www.w3.org/2000/svg">
<path d="m0.18936,7.37041c-0.25237,0.25237 -0.25256,0.66774 -0.00009,0.92017l0.63384,0.63384l-0.51821,0.51821c-0.14964,0.14964 -0.23243,0.3426 -0.25092,0.53803c-0.00292,0.02324 -0.00579,0.04933 -0.00579,0.0796c0,0.22298 0.08566,0.44827 0.25584,0.61845l5.00406,5.00406c0.16966,0.16966 0.39418,0.25442 0.61578,0.25655a0.20266,0.20266 0 0 0 0.00195,0c0.22288,0 0.44814,-0.08553 0.61832,-0.2557l0.51994,-0.51994l0.58428,0.58428c0.25243,0.25243 0.6679,0.2524 0.92034,-0.00003c0.25243,-0.25243 0.25243,-0.66787 0,-0.9203l-0.58428,-0.58428l0.51587,-0.51587l0.58428,0.58428c0.25237,0.25237 0.66777,0.25253 0.9202,0.00009c0.25244,-0.25243 0.25263,-0.66793 0.00018,-0.92043l-0.58428,-0.58428l0.51587,-0.51587l0.58428,0.58428c0.25243,0.25243 0.66787,0.25243 0.9203,0c0.25243,-0.25243 0.25227,-0.66784 -0.00009,-0.92021l-0.58428,-0.58428l0.51613,-0.51613l0.58428,0.58428c0.25237,0.25237 0.66774,0.25256 0.92017,0.00009c0.25243,-0.25243 0.25224,-0.66781 -0.00018,-0.92017l-0.58428,-0.58428l0.51613,-0.51613l0.58428,0.58428c0.25237,0.25237 0.66777,0.25253 0.92021,0.00009c0.25243,-0.25243 0.25224,-0.66781 -0.00009,-0.92017l-0.58428,-0.58428l0.51613,-0.51613l0.58428,0.58428c0.25237,0.25237 0.66777,0.25253 0.92021,0.00009c0.25243,-0.25243 0.25243,-0.66787 0,-0.9203l-0.58428,-0.58428l0.56605,-0.56605c0.17018,-0.17018 0.25587,-0.3955 0.25587,-0.61848a0.20266,0.20266 0 0 0 -0.0177,-0.08214c-0.01908,-0.19497 -0.09087,-0.38729 -0.23901,-0.53543l-5.00416,-5.004c-0.17018,-0.17018 -0.39547,-0.25584 -0.61845,-0.25584c-0.22298,0 -0.44827,0.08566 -0.61845,0.25584l-0.56608,0.56609l-0.633,-0.633c-0.25236,-0.25242 -0.66768,-0.25237 -0.92004,0c-0.25237,0.25237 -0.2524,0.66771 -0.00003,0.92008l0.633,0.633l-0.5161,0.5161l-0.633,-0.633c-0.25237,-0.25237 -0.66771,-0.25233 -0.92008,0.00003c-0.25237,0.25237 -0.25257,0.66774 -0.00013,0.92017l0.633,0.633l-0.516,0.516l-0.633,-0.633c-0.25243,-0.25243 -0.66781,-0.25224 -0.92017,0.00009c-0.25237,0.25237 -0.2524,0.66771 -0.00003,0.92008l0.633,0.633l-0.51613,0.51613l-0.633,-0.633c-0.25237,-0.25237 -0.66768,-0.25237 -0.92004,0c-0.25237,0.25237 -0.2524,0.66771 -0.00003,0.92007l0.633,0.633l-0.51613,0.51613l-0.633,-0.633c-0.25237,-0.25237 -0.66767,-0.25237 -0.92004,0c-0.25237,0.25237 -0.25237,0.66768 0,0.92004l0.633,0.633l-0.51603,0.51603l-0.633,-0.633c-0.25243,-0.25243 -0.66781,-0.25224 -0.92017,0.00009l0,0.00008zm1.33655,2.68983l8.58299,-8.58298l4.39987,4.39987l-8.58298,8.58299l-4.39987,-4.39987z"/>
</svg>
