<svg class="bi bi-github" fill="currentColor" version="1.1" viewBox="0 0 16 16" width="16" height="16" xmlns="http://www.w3.org/2000/svg">
 <path d="m5.3516 12.561c0 0.06452-0.074194 0.11613-0.16774 0.11613-0.10645 0.0097-0.18065-0.04193-0.18065-0.11613 0-0.06451 0.074193-0.11613 0.16774-0.11613 0.096774-0.0097 0.18065 0.04193 0.18065 0.11613zm-1.0032-0.14516c-0.022581 0.06451 0.041935 0.13871 0.13871 0.15806 0.083871 0.03226 0.18065 0 0.2-0.06451 0.019355-0.06451-0.041935-0.13871-0.13871-0.16774-0.083871-0.02258-0.17742 0.0097-0.2 0.07419zm1.4258-0.05484c-0.093548 0.02258-0.15806 0.08387-0.14839 0.15806 0.00968 0.06451 0.093548 0.10645 0.19032 0.08387 0.093548-0.02258 0.15806-0.08387 0.14839-0.14839-0.00968-0.06129-0.096774-0.10323-0.19032-0.09355zm2.1226-12.361c-4.4742 0-7.8968 3.3968-7.8968 7.871 0 3.5774 2.2516 6.6387 5.4677 7.7161 0.4129 0.07419 0.55806-0.18065 0.55806-0.39032 0-0.2-0.00968-1.3032-0.00968-1.9806 0 0-2.2581 0.48387-2.7323-0.96129 0 0-0.36774-0.93871-0.89677-1.1806 0 0-0.73871-0.50645 0.051613-0.49677 0 0 0.80323 0.06451 1.2452 0.83226 0.70645 1.2452 1.8903 0.8871 2.3516 0.67419 0.074194-0.51613 0.28387-0.87419 0.51613-1.0871-1.8032-0.2-3.6226-0.46129-3.6226-3.5645 2.4e-6 -0.8871 0.24516-1.3323 0.76129-1.9-0.083871-0.20968-0.35806-1.0742 0.083871-2.1903 0.67419-0.20968 2.2258 0.87097 2.2258 0.87097 0.64516-0.18065 1.3387-0.27419 2.0258-0.27419 0.6871 0 1.3806 0.093548 2.0258 0.27419 0 0 1.5516-1.0839 2.2258-0.87097 0.44194 1.1194 0.16774 1.9806 0.08387 2.1903 0.51613 0.57097 0.83226 1.0161 0.83226 1.9 0 3.1129-1.9 3.3613-3.7032 3.5645 0.29677 0.25484 0.54839 0.73871 0.54839 1.4968 0 1.0871-0.0097 2.4323-0.0097 2.6968 0 0.20968 0.14839 0.46452 0.55806 0.39032 3.2258-1.071 5.4129-4.1323 5.4129-7.7097 0-4.4742-3.629-7.871-8.1032-7.871zm-4.7613 11.126c-0.041935 0.03226-0.032258 0.10645 0.022581 0.16774 0.051613 0.05161 0.12581 0.07419 0.16774 0.03226 0.041935-0.03226 0.032258-0.10645-0.022581-0.16774-0.051613-0.05162-0.12581-0.0742-0.16774-0.03226zm-0.34839-0.26129c-0.022581 0.04193 0.00968 0.09355 0.074193 0.12581 0.051613 0.03226 0.11613 0.02258 0.13871-0.02258 0.022581-0.04193-0.00968-0.09355-0.074193-0.12581-0.064516-0.01935-0.11613-0.0097-0.13871 0.02258zm1.0452 1.1484c-0.051613 0.04193-0.032258 0.13871 0.041935 0.2 0.074194 0.07419 0.16774 0.08387 0.20968 0.03226 0.041935-0.04193 0.022581-0.13871-0.041935-0.2-0.070968-0.07419-0.16774-0.08387-0.20968-0.03226zm-0.36774-0.47419c-0.051613 0.03226-0.051613 0.11613 0 0.19032 0.051613 0.07419 0.13871 0.10645 0.18065 0.07419 0.051613-0.04193 0.051613-0.12581 0-0.2-0.045161-0.07419-0.12903-0.10645-0.18065-0.064513z"/>
</svg>
