<svg width="1em" height="1em" viewBox="0 0 16 16" class="bi bi-hdd-fill"
     fill="currentColor" xmlns:svg="http://www.w3.org/2000/svg">
  <path d="m3.19482,0c-1.19967,0 -2.18415,0.98602 -2.18415,2.1842l0,11.60726c0,1.19817 0.98448,2.18415 2.18415,2.18415l9.61032,0c1.19967,0 2.1842,-0.98598 2.18419,-2.18415l0,-11.60726c0,-1.19817 -0.98453,-2.1842 -2.18419,-2.1842l-9.61032,0zm0,1.99699l9.61032,0c0.12381,0 0.18726,0.05641 0.18726,0.18721l0,11.60726c0,0.1308 -0.06344,0.18721 -0.18726,0.18721l-9.61032,0c-0.12381,0 -0.18721,-0.05641 -0.18721,-0.18721l0,-11.60726c0,-0.1308 0.0634,-0.18721 0.18721,-0.18721zm4.82196,0.99568c-0.05768,-0.00017 -0.11556,0.00095 -0.17356,0.0033l0.00102,-0.00053c-0.2651,0.01098 -0.54369,0.05841 -0.81128,0.12481c-2.14123,0.53019 -3.43174,2.6954 -2.90205,4.83663c0.44931,1.81423 2.07233,3.01788 3.8596,3.02088c0.16774,0.00047 0.33701,-0.00995 0.50675,-0.03142l-0.3884,-2.97499c-0.03445,0.00998 -0.07042,0.017 -0.10936,0.017c-0.55166,0 -0.99849,-0.44684 -0.99849,-0.99849c0,-0.55166 0.44684,-0.99844 0.99849,-0.99844c0.55166,0 0.99849,0.44679 0.99849,0.99844c0,0.11732 -0.02847,0.22465 -0.07241,0.32449l2.69638,1.3849c0.38541,-0.82873 0.46931,-1.7778 0.24665,-2.67642c-0.4493,-1.81509 -2.06383,-3.02485 -3.85183,-3.03015zm0.64321,4.99514l1.33697,3.99392c0.73338,2.05287 2.99543,0.3839 1.49422,-0.99849l-2.83119,-2.99543z"/>
</svg>
