<?xml version="1.0"?>
<svg width="1em" height="1em" viewBox="0 0 16 16" xmlns:svg="http://www.w3.org/2000/svg" class="bi bi-idea-fill" fill="currentColor">
  <path d="m10.495978,13.353482l0,0.873592c0,0.326006 -0.208415,0.603215 -0.499196,0.706019l0,0.292373c0,0.413552 -0.335241,0.748793 -0.748793,0.748793l-2.495977,0c-0.413553,0 -0.748793,-0.335241 -0.748793,-0.748793l0,-0.292373c-0.290782,-0.102804 -0.499196,-0.380013 -0.499196,-0.706019l0,-0.873592c0,-0.206761 0.167637,-0.374397 0.374397,-0.374397l4.243163,0c0.20676,0 0.374397,0.167635 0.374397,0.374397zm-4.49276,-7.86233c0,-1.101039 0.895743,-1.996783 1.996782,-1.996783c0.275712,0 0.499195,-0.223514 0.499195,-0.499195c0,-0.275681 -0.223484,-0.499195 -0.499195,-0.499195c-1.651558,0 -2.995173,1.343616 -2.995173,2.995173c0,0.27568 0.223514,0.499195 0.499195,0.499195c0.275681,0 0.499196,-0.223515 0.499196,-0.499195zm1.996782,-3.993565c2.206882,0 3.993565,1.786308 3.993565,3.993565c0,2.42116 -1.166339,1.886865 -2.526554,4.991955l-2.934022,0c-1.362243,-3.109676 -2.526554,-2.562464 -2.526554,-4.991955c0,-2.206912 1.78631,-3.993565 3.993565,-3.993565m0,-1.497587c-3.032457,0 -5.491152,2.458632 -5.491152,5.491152c0,3.173978 1.612933,2.856054 2.824075,6.011376c0.110759,0.288566 0.38906,0.478166 0.698124,0.478166l3.937874,0c0.309064,0 0.587366,-0.189632 0.698125,-0.478166c1.211173,-3.155322 2.824105,-2.837397 2.824105,-6.011376c0,-3.03252 -2.458694,-5.491152 -5.491152,-5.491152z"/>
</svg>
