<svg width="1em" height="1em" viewBox="0 0 16 16" class="bi bi-key-fill" fill="currentColor" xmlns="http://www.w3.org/2000/svg">
<path d="m10.305947,1.850809c-2.122624,0 -3.843244,1.72062 -3.843244,3.843244c0,0.240203 0.02844,0.471566 0.070716,0.697933l-4.682609,4.682609l0,3.074595l4.611893,0l0,-1.537297l1.537298,0l0,-1.537298l1.537297,0l0,-1.537298l0.070716,-0.070716c0.226367,0.042275 0.45773,0.070716 0.697933,0.070716c2.122624,0 3.843244,-1.72062 3.843244,-3.843244c0,-2.122624 -1.72062,-3.843244 -3.843244,-3.843244l0,0zm0,6.149191c-0.120294,0 -0.252117,-0.014989 -0.417376,-0.044966l-0.795552,-0.147197l-1.093019,1.093019l0,0.636441l-1.537298,0l0,1.537298l-1.537298,0l0,1.537298l-1.537298,0l0,-0.900857l4.804055,-4.804055l-0.147196,-0.795552c-0.030746,-0.16526 -0.044966,-0.297467 -0.044966,-0.417376c0,-1.27173 1.034217,-2.305947 2.305947,-2.305947c1.27173,0 2.305947,1.034217 2.305947,2.305947c0,1.27173 -1.034217,2.305947 -2.305947,2.305947l0,0l0.000001,0zm-0.768649,-2.305947c0,-0.42451 0.344139,-0.768649 0.768649,-0.768649c0.42451,0 0.768649,0.344139 0.768649,0.768649c0,0.42451 -0.344139,0.768649 -0.768649,0.768649c-0.424511,0 -0.768649,-0.344139 -0.768649,-0.768649z"/>
</svg>
