<svg width="1em" height="1em" viewBox="0 0 16 16" class="bi bi-shield-fill" fill="currentColor" xmlns="http://www.w3.org/2000/svg">
  <path d="m1.990297,1.821705l0,7.01076c0,2.074689 1.511791,3.686621 2.848352,4.882483c1.336528,1.195828 2.660563,2.00305 2.660563,2.00305l0.500771,0.282002l0.53232,-0.312814c0,0 1.296539,-0.798782 2.629081,-2.003117c1.332542,-1.204335 2.848319,-2.803775 2.848319,-4.851403l0,-7.01076l-12.018435,0l-0.000971,-0.000201zm2.002045,2.002548l0.001038,0.00067l8.012301,0l0,5.007709c0,0.920893 -0.988514,2.322027 -2.159792,3.38017c-0.907396,0.819748 -1.481313,1.140734 -1.846844,1.377087c-0.354545,-0.222721 -0.929903,-0.525756 -1.846811,-1.34604c-1.167796,-1.045081 -2.159859,-2.430742 -2.159859,-3.411753l-0.000033,-5.007843zm1.003049,1.002044l0,4.006167c0,0.358062 0.75618,1.644017 1.846844,2.629014c0.576396,0.520799 0.737626,0.581386 1.158284,0.876349c0.420658,-0.295064 0.581888,-0.35555 1.158284,-0.876349c1.090161,-0.984997 1.846811,-2.270952 1.846811,-2.629014l0,-4.006167l-6.009251,0l-0.000971,0z"/>
</svg>
