<svg width="1em" height="1em" viewbox="0 0 16 16" class="bi bi-chip-fill" fill="currentColor" xmlns:svg="http://www.w3.org/2000/svg">
<path d="m12.35793,0.00236c-0.24453,0.00378 -0.49253,0.03023 -0.73604,0.09521l0.00106,-0.00049c-1.86539,0.48611 -2.98364,2.38199 -2.49704,4.23488c0.10152,0.38708 0.29006,0.73865 0.50209,1.05322c-0.10851,0.01889 -1.62733,2.59501 -1.62733,2.59501l3.4102,0.02267l0.80216,-1.11473c0.38009,0.03023 0.78119,0.01889 1.17076,-0.08085c1.86539,-0.48611 2.98364,-2.38199 2.49704,-4.23488c-0.10152,-0.38708 -0.29009,-0.73868 -0.50217,-1.05326l-1.35975,2.30654c-0.27955,0.47409 -0.88071,0.63059 -1.3573,0.35364l-0.87466,-0.50806c-0.47663,-0.27695 -0.63361,-0.87372 -0.35406,-1.34781l1.35975,-2.3065c-0.14252,-0.01133 -0.28798,-0.01511 -0.43472,-0.01511l0,0.00053zm-8.72842,0.69206c-0.01058,-0.00019 -0.02078,0.00038 -0.0306,0.00238l0.00151,0.00151c-0.23006,0.04723 -0.44357,0.1311 -0.65564,0.21914c-0.01662,0.62462 0.08701,1.44227 -0.15604,1.65631c-0.23856,0.2112 -1.0372,0.034 -1.6543,-0.03023c-0.13103,0.23652 -0.23508,0.48509 -0.31208,0.75013c0.47757,0.39611 1.13922,0.83919 1.15474,1.15675c0.01587,0.32115 -0.62564,0.80518 -1.06123,1.2503c0.10303,0.25805 0.25004,0.49359 0.40559,0.71911c0.60762,-0.12657 1.36478,-0.37367 1.62283,-0.1874c0.26304,0.18967 0.26504,1.00565 0.34306,1.62529c0.24906,0.07519 0.51214,0.10466 0.78021,0.12506c0.28106,-0.55461 0.56658,-1.32027 0.87364,-1.40679c0.31556,-0.08841 0.9622,0.45815 1.4983,0.78172c0.21853,-0.15151 0.41258,-0.33702 0.59311,-0.53167c-0.25356,-0.57259 -0.72013,-1.29227 -0.59311,-1.5943c0.12702,-0.30188 0.97422,-0.46956 1.56034,-0.6876c0.00416,-0.07368 0.03098,-0.14395 0.03098,-0.21914c0,-0.19156 -0.03438,-0.37907 -0.06253,-0.56262c-0.60512,-0.16095 -1.46532,-0.24143 -1.62283,-0.5316c-0.15653,-0.2879 0.24154,-1.06172 0.43707,-1.65683c-0.20104,-0.17871 -0.41908,-0.33702 -0.65564,-0.46911c-0.50013,0.37518 -1.08273,0.99474 -1.4043,0.93772c-0.31658,-0.05592 -0.66214,-0.81969 -0.9987,-1.3443c-0.02985,0.00378 -0.06287,-0.00189 -0.09427,-0.00238l-0.00011,-0.00144zm0.59485,1.87926c0.93069,0 1.68536,0.75569 1.68536,1.68785c0,0.93221 -0.75467,1.68789 -1.68536,1.68789c-0.93069,0 -1.68528,-0.75569 -1.68528,-1.68789c0,-0.93217 0.75459,-1.68785 1.68528,-1.68785zm8.62055,6.33226c-0.14255,-0.00162 -0.27309,0.02267 -0.35731,0.07405c-0.00125,0 -0.00344,0.00064 -0.00529,0.00098l-9.04579,0c-0.24574,-0.10692 -0.74926,-0.05025 -0.9681,0.17909l-2.16198,2.11695c-0.19156,0.17418 -0.30003,0.48059 -0.30404,0.70464l-0.00053,-0.00053c-0.05252,0.88717 1.00225,1.32182 1.63938,0.79521l1.36024,-1.33398l0.00491,3.53991c0,0.57059 0.46008,1.00021 0.9987,1.00021l7.99362,0c0.52261,0 0.99474,-0.44561 0.99474,-0.93772l-0.00491,-3.60259l1.33704,1.31116c0.63712,0.52661 1.69186,0.09257 1.63934,-0.79517l-0.00049,0.00049c-0.00416,-0.22405 -0.11255,-0.53062 -0.30411,-0.70468l-2.16191,-2.11691c-0.14535,-0.15226 -0.41632,-0.22858 -0.6539,-0.23123l0.00038,0.00011z"/></svg>
