<svg width="1em" height="1em" viewBox="0 0 16 16" class="bi bi-idea-fill" fill="currentColor" xmlns="http://www.w3.org/2000/svg">
  <path
     d="m 10.720551,0.390623 3.999107,3.9999427 c 0.833723,0.8337222 0.249862,2.2761094 -0.942776,2.2761094 H 12.18805 c -0.05222,1.1791653 -0.181944,2.3341646 -0.499722,3.3544389 -0.304167,0.976946 -0.766111,1.751944 -1.372776,2.303057 -0.7377782,0.66972 -1.6655556,1.009165 -2.7583321,1.009165 -1.713805,0 -3.1237479,-0.921611 -4.0211076,-2.357498 C 2.8831119,9.932895 3.8875271,8.6078396 5.0844439,9.0030608 6.3933041,9.4340343 7.0545262,9.4796159 7.2722195,6.6666751 H 5.7777764 c -1.1942497,0 -1.7753592,-1.4435565 -0.9427768,-2.2761094 L 8.834997,0.390623 c 0.5205546,-0.52083067 1.365,-0.52083067 1.885554,0 z M 5.7777764,5.3333425 H 8.6622195 C 8.6088286,8.908088 8.0180532,11.375227 4.6666657,10.269173 c 0.5124998,0.819998 1.4422226,1.73083 2.8905542,1.73083 3.0370531,0 3.3040801,-3.587219 3.3291641,-6.6666605 H 13.77777 L 9.7777735,1.3333449 Z M 3.4307499,4.6461211 A 2.2960536,2.2960536 0 0 1 3.6891676,4.0635108 C 3.8267225,3.8419547 3.6662143,3.5555663 3.4054454,3.5555663 H 2.2222241 c -0.7363886,0 -1.33333282,0.5969444 -1.33333282,1.3333329 V 14.666667 C 0.88889128,15.403056 1.4858355,16 2.2222241,16 h 9.7777699 c 0.736389,0 1.333333,-0.596944 1.333333,-1.333333 v -3.666663 c 0,-0.184084 -0.14925,-0.333333 -0.333334,-0.333333 h -0.12461 c -0.136583,0 -0.26025,0.08297 -0.309778,0.210251 -0.148083,0.380608 -0.320472,0.73322 -0.516249,1.056943 a 0.33716637,0.33716637 0 0 0 -0.04936,0.174443 v 2.391693 A 0.16666652,0.16666652 0 0 1 11.83333,14.666667 H 2.3888932 A 0.16666652,0.16666652 0 0 1 2.2222268,14.500001 V 5.0555645 A 0.16666652,0.16666652 0 0 1 2.3888932,4.8888992 h 0.7212766 c 0.1491669,0 0.279417,-0.099419 0.3205838,-0.2427781 z" />
</svg>
