<svg width="1em" height="1em" viewbox="0 0 16 16" class="bi bi-chip-fill" fill="currentColor" xmlns:svg="http://www.w3.org/2000/svg">
<path d="m11.18894,0.10496l-0.00168,0.00093c-0.25625,0.4652 -0.49922,1.0747 -0.76799,1.53559c-0.10037,-0.00841 -0.19812,-0.03345 -0.30054,-0.03345c-0.3553,0 -0.70499,0.05178 -1.03507,0.13345c-0.32577,-0.40913 -0.6736,-0.95918 -1.00142,-1.36869c-0.30389,0.11214 -0.59025,0.24204 -0.86797,0.40072c0.10261,0.51528 0.29605,1.14403 0.40072,1.66904c-0.36652,0.26595 -0.66874,0.56819 -0.93469,0.93451c-0.52501,-0.10467 -1.15357,-0.29811 -1.66904,-0.40072c-0.15867,0.27755 -0.2884,0.56388 -0.40053,0.86778c0.40913,0.32783 0.95974,0.67565 1.36887,1.00142c-0.08168,0.32951 -0.13365,0.67994 -0.13365,1.03507c0,0.10186 0.02634,0.20035 0.03383,0.30054c-0.46109,0.2682 -1.07095,0.51174 -1.53559,0.76799c0.05457,0.29399 0.13719,0.59136 0.234,0.86797c0.52501,-0.01252 1.1743,-0.10112 1.70249,-0.09981c0.1998,0.41885 0.44931,0.80556 0.76817,1.13487c-0.18373,0.49997 -0.47865,1.0773 -0.66762,1.56923c0.22746,0.18746 0.48015,0.3482 0.73434,0.5009c0.39418,-0.34184 0.82835,-0.82405 1.23542,-1.16852c0.40371,0.1841 0.84218,0.28354 1.30196,0.33362c0.17569,0.5095 0.32521,1.16216 0.5009,1.66904c0.32203,-0.00225 0.62706,-0.01681 0.93469,-0.06692c0.08598,-0.52651 0.11794,-1.19468 0.20035,-1.73576c0.43791,-0.12466 0.86667,-0.28502 1.23523,-0.53397c0.45343,0.28259 0.96031,0.67191 1.40196,0.93469c0.23868,-0.20335 0.46407,-0.42894 0.66762,-0.66762c-0.26278,-0.44165 -0.6521,-0.94853 -0.93469,-1.40196c0.24896,-0.36877 0.40913,-0.79696 0.53416,-1.23542c0.5409,-0.08224 1.20907,-0.11439 1.73576,-0.20035c0.05178,-0.30764 0.06503,-0.61267 0.06673,-0.93451c-0.50688,-0.17588 -1.15953,-0.32484 -1.66904,-0.50108c-0.05008,-0.45921 -0.14952,-0.89769 -0.3338,-1.30196c0.34447,-0.40707 0.82629,-0.84068 1.16852,-1.23542c-0.15214,-0.25418 -0.31287,-0.50688 -0.5009,-0.73434c-0.49137,0.18915 -1.06927,0.48389 -1.56923,0.66762c-0.32951,-0.3181 -0.71603,-0.56781 -1.13487,-0.76799c-0.00093,-0.52819 0.08972,-1.17767 0.10056,-1.70268c-0.27662,-0.09643 -0.57416,-0.17868 -0.86797,-0.23381l0,-0.00001l0.00001,0zm-1.06965,3.63974c1.17973,0 2.1363,0.95639 2.1363,2.1363c0,1.17973 -0.95657,2.1363 -2.1363,2.1363c-1.17991,0 -2.1363,-0.95657 -2.1363,-2.1363c0,-1.17991 0.95639,-2.1363 2.1363,-2.1363zm-7.11126,4.36865c-0.01122,0 -0.02205,0.00057 -0.03252,0.00225l0.00057,0.00112c-0.24578,0.05008 -0.47436,0.1398 -0.70126,0.23381c-0.01775,0.66705 0.09289,1.54026 -0.16727,1.76941c-0.25531,0.22541 -1.10927,0.03757 -1.76941,-0.03345c-0.14036,0.25268 -0.25139,0.51809 -0.3338,0.80125c0.51062,0.42296 1.21823,0.89619 1.23542,1.23523c0.01701,0.34278 -0.6693,0.85994 -1.13506,1.33523c0.11064,0.27549 0.26708,0.52706 0.43437,0.76799c0.64986,-0.13512 1.45953,-0.39903 1.73576,-0.20035c0.28129,0.20242 0.28297,1.07395 0.36745,1.73576c0.26633,0.08019 0.54744,0.11139 0.83415,0.13345c0.30072,-0.59229 0.60613,-1.4098 0.93469,-1.50232c0.33698,-0.09439 1.02908,0.48932 1.60213,0.83472c0.23344,-0.16149 0.44108,-0.35979 0.63454,-0.56762c-0.27138,-0.61155 -0.77022,-1.38009 -0.63454,-1.70268c0.13569,-0.32277 1.04197,-0.50146 1.66904,-0.73434c0.00486,-0.0785 0.03365,-0.15363 0.03365,-0.23381c0,-0.20465 -0.03701,-0.40502 -0.06673,-0.60089c-0.64724,-0.17194 -1.56699,-0.25792 -1.73576,-0.56762c-0.16709,-0.30783 0.25849,-1.13394 0.46726,-1.76941c-0.21456,-0.19082 -0.44801,-0.35996 -0.70107,-0.50108c-0.53529,0.40035 -1.15861,1.06235 -1.50251,1.00142c-0.33848,-0.05981 -0.70817,-0.87527 -1.06815,-1.4356c-0.03196,0.00429 -0.06728,-0.00225 -0.10093,-0.00225l0,-0.00018l0.00001,-0.00002l-0.00003,0zm0.63547,2.00658c0.99563,0 1.80268,0.80685 1.80268,1.80249c0,0.99543 -0.80704,1.80249 -1.80268,1.80249c-0.99543,0 -1.80249,-0.80704 -1.80249,-1.80249c0,-0.99563 0.80704,-1.80249 1.80249,-1.80249z"/>
</svg>
